<?xml version="1.0" standalone="no"?><!DOCTYPE svg PUBLIC "-//W3C//DTD SVG 1.1//EN" "http://www.w3.org/Graphics/SVG/1.1/DTD/svg11.dtd"><svg t="1723630435531" class="icon" viewBox="0 0 1024 1024" version="1.1" xmlns="http://www.w3.org/2000/svg" p-id="1571" xmlns:xlink="http://www.w3.org/1999/xlink" width="200" height="200"><path d="M436.029355 41.336595c-108.36205 3.626314-216.724099 15.021488-325.09038 34.181289-16.485554 2.957752-32.459107 18.935537-35.421091 35.421091-19.159802 108.36205-30.554975 216.728331-34.181289 325.09038-0.562777 16.485554 13.85362 29.615603 31.934413 29.344794 118.538579-2.043769 237.077157-3.262413 355.619967-3.651703 18.085025-0.055008 32.772231-14.742215 32.82724-32.827239 0.385058-118.54281 1.603702-237.081388 3.651702-355.619967 0.275041-18.085025-12.850777-32.501421-29.340562-31.938645z" fill="#FFD53F" p-id="1572"></path><path d="M428.895207 562.281785c-118.54281-0.389289-237.081388-1.607934-355.619967-3.651702-18.080793-0.27081-32.49719 12.850777-31.934414 29.344793 3.626314 108.36205 15.021488 216.728331 34.18129 325.09038 2.957752 16.485554 18.935537 32.459107 35.421091 35.41686 108.36205 19.159802 216.724099 30.554975 325.09038 34.18552 16.489785 0.562777 29.615603-13.85362 29.344793-31.938644a25484.440331 25484.440331 0 0 1-3.651702-355.619967 32.954182 32.954182 0 0 0-32.831471-32.82724z" fill="#FF5F5F" p-id="1573"></path><path d="M913.065256 75.522116c-108.36205-19.159802-216.728331-30.554975-325.09038-34.185521-16.489785-0.562777-29.615603 13.85362-29.344793 31.934413 2.043769 118.538579 3.262413 237.081388 3.651702 355.619967a32.94995 32.94995 0 0 0 32.82724 32.82724c118.54281 0.385058 237.077157 1.603702 355.619967 3.651702 18.080793 0.27081 32.49719-12.855008 31.934413-29.344793-3.630545-108.36205-15.025719-216.728331-34.185521-325.09038-2.957752-16.481322-18.927074-32.454876-35.412628-35.412628z" fill="#71E3D4" p-id="1574"></path><path d="M950.733223 558.630083c-118.54281 2.043769-237.077157 3.262413-355.619967 3.651702a32.94995 32.94995 0 0 0-32.827239 32.82724 25484.440331 25484.440331 0 0 1-3.651703 355.619967c-0.27081 18.080793 12.850777 32.501421 29.344793 31.938644 108.36205-3.630545 216.728331-15.025719 325.090381-34.18552 16.485554-2.957752 32.459107-18.935537 35.412628-35.41686 19.159802-108.36205 30.554975-216.728331 34.18552-325.09038 0.558545-16.494017-13.85362-29.619835-31.934413-29.344793z" fill="#24B5D9" p-id="1575"></path></svg>